# xmcd
# 
# Track frame offsets:
#     150
#     16038
#     30564
#     43207
#     61647
#     70241
#     83562
#     102597
#     120551
#     131586
#     154756
#     164578
#     183728
#     203342
#     225908
# 
# Disc length: 3324
# 
# Revision: 2
# Processed by: cddbd v1.5.2PL0 Copyright (c) Steve Scherf et al.
# Submitted via: fre:ac v1.0.27
# 
DISCID=b80cfa0f
DTITLE=Les Copeland - Don't Let the Devil In
DYEAR=2010
DGENRE=Blues
TTITLE0=That Needing Time
TTITLE1=Ry Cooder
TTITLE2=What's Your Name
TTITLE3=Distant Train
TTITLE4=Riding the Sky Train
TTITLE5=Silently
TTITLE6=Anna Lee
TTITLE7=Long Lost Love
TTITLE8=Ginseng Girl
TTITLE9=How's That Drummer
TTITLE10=I'm the Little One
TTITLE11=Everyday People
TTITLE12=Wet Paper Bag
TTITLE13=Don't Let the Devil In
TTITLE14=Crying for an Angel
EXTD=Les Copeland (vocals, lead and rhythm guitar]\nDavid "Honeyboy" Edwards (2nd guitar on 7 and 10]\nMichael Frank (harmonica on 3, 5, 14)
EXTT0=
EXTT1=
EXTT2=
EXTT3=
EXTT4=
EXTT5=
EXTT6=
EXTT7=
EXTT8=
EXTT9=
EXTT10=
EXTT11=
EXTT12=
EXTT13=
EXTT14=
PLAYORDER=
